<svg width="1735" height="688" viewBox="0 0 1735 688" fill="none" xmlns="http://www.w3.org/2000/svg">
<rect width="1735" height="688" fill="#ED93B6"/>
<path d="M1534.1 184.534C1531.72 180.418 1530.18 175.874 1529.56 171.162C1528.94 166.45 1529.25 161.662 1530.48 157.071C1531.71 152.48 1533.83 148.177 1536.73 144.406C1539.62 140.636 1543.23 137.472 1547.34 135.096C1551.46 132.719 1556 131.177 1560.71 130.557C1565.43 129.936 1570.21 130.25 1574.81 131.48C1579.4 132.71 1583.7 134.832 1587.47 137.726C1591.24 140.619 1594.4 144.227 1596.78 148.343L1565.44 166.438L1534.1 184.534Z" fill="#92CFB5"/>
<path d="M786 3.8147e-06C786 7.55101 787.487 15.0281 790.377 22.0043C793.267 28.9805 797.502 35.3193 802.841 40.6586C808.181 45.998 814.519 50.2334 821.496 53.1231C828.472 56.0127 835.949 57.5 843.5 57.5C851.051 57.5 858.528 56.0127 865.504 53.1231C872.481 50.2334 878.819 45.998 884.159 40.6586C889.498 35.3193 893.733 28.9805 896.623 22.0043C899.513 15.0281 901 7.55101 901 0L843.5 3.8147e-06H786Z" fill="#007681"/>
<circle cx="18" cy="18" r="18" transform="matrix(-1 0 0 1 1419 607)" fill="#92CFB5"/>
<circle cx="18" cy="18" r="18" transform="matrix(-1 0 0 1 123 607)" fill="white"/>
<rect x="175" y="420" width="105" height="19" fill="#CF4C84"/>
</svg>
