<svg width="1735" height="688" viewBox="0 0 1735 688" fill="none" xmlns="http://www.w3.org/2000/svg">
<rect width="1735" height="688" fill="#7BCDE6"/>
<path d="M741.096 550.534C738.72 546.418 737.177 541.874 736.557 537.162C735.937 532.45 736.25 527.662 737.481 523.071C738.711 518.48 740.833 514.177 743.726 510.406C746.619 506.636 750.227 503.472 754.343 501.096C758.459 498.719 763.003 497.177 767.715 496.557C772.427 495.936 777.215 496.25 781.806 497.48C786.396 498.71 790.7 500.832 794.47 503.726C798.241 506.619 801.405 510.227 803.781 514.343L772.439 532.438L741.096 550.534Z" fill="#CF4C84"/>
<path d="M616 688C616 679.989 617.578 672.057 620.643 664.656C623.709 657.255 628.202 650.531 633.866 644.866C639.531 639.202 646.255 634.709 653.656 631.643C661.057 628.578 668.989 627 677 627C685.011 627 692.943 628.578 700.344 631.643C707.745 634.709 714.469 639.202 720.134 644.866C725.798 650.531 730.291 657.255 733.357 664.656C736.422 672.057 738 679.989 738 688L677 688L616 688Z" fill="white"/>
<path d="M1482 3.8147e-06C1482 7.55101 1483.49 15.0281 1486.38 22.0043C1489.27 28.9805 1493.5 35.3193 1498.84 40.6586C1504.18 45.998 1510.52 50.2334 1517.5 53.1231C1524.47 56.0127 1531.95 57.5 1539.5 57.5C1547.05 57.5 1554.53 56.0127 1561.5 53.1231C1568.48 50.2334 1574.82 45.998 1580.16 40.6586C1585.5 35.3193 1589.73 28.9805 1592.62 22.0043C1595.51 15.0281 1597 7.55101 1597 0L1539.5 3.8147e-06H1482Z" fill="#ED93B6"/>
<circle cx="18" cy="18" r="18" transform="matrix(-1 0 0 1 1419 607)" fill="#ED93B6"/>
<circle cx="18" cy="18" r="18" transform="matrix(-1 0 0 1 123 607)" fill="white"/>
<rect x="633" y="93" width="105" height="19" fill="#007681"/>
</svg>
