<svg width="1735" height="688" viewBox="0 0 1735 688" fill="none" xmlns="http://www.w3.org/2000/svg">
<rect width="1735" height="688" fill="#92CFB5"/>
<rect x="1158" y="540" width="105" height="57" fill="#ED93B6"/>
<rect x="1531" y="540" width="105" height="19" fill="#CF4C84"/>
<path fill-rule="evenodd" clip-rule="evenodd" d="M674 687.768L793.904 687.768C788.152 659.928 763.496 639 733.952 639C704.408 639 679.752 659.928 674 687.768Z" fill="#CF4C84"/>
<path fill-rule="evenodd" clip-rule="evenodd" d="M621 0L709 3.8466e-06C704.778 20.4323 686.683 35.7917 665 35.7917C643.317 35.7917 625.222 20.4323 621 0Z" fill="white"/>
<path d="M762.096 395.343C766.895 387.03 774.8 380.964 784.072 378.48C793.343 375.996 803.222 377.296 811.534 382.096C819.847 386.895 825.912 394.8 828.397 404.071C830.881 413.343 829.58 423.221 824.781 431.534L793.439 413.438L762.096 395.343Z" fill="#007681"/>
<circle cx="895" cy="96" r="18" fill="#ED93B6"/>
<circle cx="105" cy="56" r="18" fill="#007681"/>
<circle cx="1438" cy="587" r="18" fill="#007681"/>
</svg>
